REM DIRINDEX 1\2,1\3,1\4,1\5,1\6
REM DIRNAME cjc129,folder01,folder02,folder03,folder04,folder05
TITLE ""
FILE "DISC5Track14.mp3" MP3
  TRACK 01 AUDIO
    TITLE "0:"
    INDEX 01 00:00:00
  TRACK 02 AUDIO
    TITLE "3:cjc129_4266"
    INDEX 01 00:00:05
  TRACK 03 AUDIO
    TITLE "0:"
    INDEX 01 00:01:17
  TRACK 04 AUDIO
    TITLE "5:cjc129_4267"
    INDEX 01 00:01:48
  TRACK 05 AUDIO
    TITLE "0:"
    INDEX 01 00:05:36
  TRACK 06 AUDIO
    TITLE "4:cjc129_4268"
    INDEX 01 00:06:26
  TRACK 07 AUDIO
    TITLE "0:"
    INDEX 01 00:07:39
  TRACK 08 AUDIO
    TITLE "6:cjc129_4269"
    INDEX 01 00:07:70
  TRACK 09 AUDIO
    TITLE "0:"
    INDEX 01 00:13:43
  TRACK 10 AUDIO
    TITLE "3:cjc129_4270"
    INDEX 01 00:15:19
  TRACK 11 AUDIO
    TITLE "0:"
    INDEX 01 00:16:63
  TRACK 12 AUDIO
    TITLE "5:cjc129_4271"
    INDEX 01 00:17:18
  TRACK 13 AUDIO
    TITLE "0:"
    INDEX 01 00:20:00
  TRACK 14 AUDIO
    TITLE "4:cjc129_4272"
    INDEX 01 00:20:69
  TRACK 15 AUDIO
    TITLE "0:"
    INDEX 01 00:22:38
  TRACK 16 AUDIO
    TITLE "6:cjc129_4273"
    INDEX 01 00:22:68
  TRACK 17 AUDIO
    TITLE "0:"
    INDEX 01 00:27:22
  TRACK 18 AUDIO
    TITLE "3:cjc129_4274"
    INDEX 01 00:28:72
  TRACK 19 AUDIO
    TITLE "0:"
    INDEX 01 00:30:32
  TRACK 20 AUDIO
    TITLE "5:cjc129_4275"
    INDEX 01 00:30:63
  TRACK 21 AUDIO
    TITLE "0:"
    INDEX 01 00:34:59
  TRACK 22 AUDIO
    TITLE "4:cjc129_4276"
    INDEX 01 00:35:47
  TRACK 23 AUDIO
    TITLE "0:"
    INDEX 01 00:37:05
  TRACK 24 AUDIO
    TITLE "6:cjc129_4277"
    INDEX 01 00:37:38
  TRACK 25 AUDIO
    TITLE "0:"
    INDEX 01 00:40:72
  TRACK 26 AUDIO
    TITLE "3:cjc129_4278"
    INDEX 01 00:42:47
  TRACK 27 AUDIO
    TITLE "0:"
    INDEX 01 00:44:18
  TRACK 28 AUDIO
    TITLE "5:cjc129_4279"
    INDEX 01 00:44:50
  TRACK 29 AUDIO
    TITLE "0:"
    INDEX 01 00:46:54
  TRACK 30 AUDIO
    TITLE "4:cjc129_4280"
    INDEX 01 00:47:42
  TRACK 31 AUDIO
    TITLE "0:"
    INDEX 01 00:49:12
  TRACK 32 AUDIO
    TITLE "6:cjc129_4281"
    INDEX 01 00:49:47
  TRACK 33 AUDIO
    TITLE "0:"
    INDEX 01 00:54:60
  TRACK 34 AUDIO
    TITLE "3:cjc129_4282"
    INDEX 01 00:56:37
  TRACK 35 AUDIO
    TITLE "0:"
    INDEX 01 00:57:72
  TRACK 36 AUDIO
    TITLE "5:cjc129_4283"
    INDEX 01 00:58:28
  TRACK 37 AUDIO
    TITLE "0:"
    INDEX 01 01:03:57
  TRACK 38 AUDIO
    TITLE "4:cjc129_4284"
    INDEX 01 01:04:47
  TRACK 39 AUDIO
    TITLE "0:"
    INDEX 01 01:06:06
  TRACK 40 AUDIO
    TITLE "6:cjc129_4285"
    INDEX 01 01:06:38
  TRACK 41 AUDIO
    TITLE "0:"
    INDEX 01 01:09:50
  TRACK 42 AUDIO
    TITLE "3:cjc129_4286"
    INDEX 01 01:11:25
  TRACK 43 AUDIO
    TITLE "0:"
    INDEX 01 01:14:02
  TRACK 44 AUDIO
    TITLE "5:cjc129_4287"
    INDEX 01 01:14:35
  TRACK 45 AUDIO
    TITLE "0:"
    INDEX 01 01:16:67
  TRACK 46 AUDIO
    TITLE "4:cjc129_4288"
    INDEX 01 01:17:55
  TRACK 47 AUDIO
    TITLE "0:"
    INDEX 01 01:20:32
  TRACK 48 AUDIO
    TITLE "6:cjc129_4289"
    INDEX 01 01:20:65
  TRACK 49 AUDIO
    TITLE "0:"
    INDEX 01 01:24:49
  TRACK 50 AUDIO
    TITLE "3:cjc129_4290"
    INDEX 01 01:26:23
  TRACK 51 AUDIO
    TITLE "0:"
    INDEX 01 01:27:55
  TRACK 52 AUDIO
    TITLE "5:cjc129_4291"
    INDEX 01 01:28:10
  TRACK 53 AUDIO
    TITLE "0:"
    INDEX 01 01:31:71
  TRACK 54 AUDIO
    TITLE "4:cjc129_4292"
    INDEX 01 01:32:62
  TRACK 55 AUDIO
    TITLE "0:"
    INDEX 01 01:34:20
  TRACK 56 AUDIO
    TITLE "6:cjc129_4293"
    INDEX 01 01:34:52
  TRACK 57 AUDIO
    TITLE "0:"
    INDEX 01 01:39:29
  TRACK 58 AUDIO
    TITLE "3:cjc129_4294"
    INDEX 01 01:41:03
  TRACK 59 AUDIO
    TITLE "0:"
    INDEX 01 01:42:33
  TRACK 60 AUDIO
    TITLE "5:cjc129_4295"
    INDEX 01 01:42:61
  TRACK 61 AUDIO
    TITLE "0:"
    INDEX 01 01:47:19
  TRACK 62 AUDIO
    TITLE "4:cjc129_4296"
    INDEX 01 01:48:09
  TRACK 63 AUDIO
    TITLE "0:"
    INDEX 01 01:49:35
  TRACK 64 AUDIO
    TITLE "6:cjc129_4297"
    INDEX 01 01:49:65
  TRACK 65 AUDIO
    TITLE "0:"
    INDEX 01 01:53:59
  TRACK 66 AUDIO
    TITLE "3:cjc129_4298"
    INDEX 01 01:55:36
  TRACK 67 AUDIO
    TITLE "0:"
    INDEX 01 01:56:65
  TRACK 68 AUDIO
    TITLE "5:cjc129_4299"
    INDEX 01 01:57:29
  TRACK 69 AUDIO
    TITLE "0:"
    INDEX 01 02:01:48
  TRACK 70 AUDIO
    TITLE "4:cjc129_4300"
    INDEX 01 02:02:38
  TRACK 71 AUDIO
    TITLE "0:"
    INDEX 01 02:03:67
  TRACK 72 AUDIO
    TITLE "6:cjc129_4301"
    INDEX 01 02:04:33
  TRACK 73 AUDIO
    TITLE "0:"
    INDEX 01 02:08:19
